<?xml version="1.0" encoding="utf-8"?><!-- Uploaded to: SVG Repo, www.svgrepo.com, Generator: SVG Repo Mixer Tools -->
<svg version="1.1" id="Uploaded to svgrepo.com" xmlns="http://www.w3.org/2000/svg" xmlns:xlink="http://www.w3.org/1999/xlink" 
	 width="800px" height="800px" viewBox="0 0 32 32" xml:space="preserve">
<style type="text/css">
	.sharpcorners_een{fill:#111918;}
	.st0{fill:#111918;}
</style>
<path class="sharpcorners_een" d="M19.5,6C20.881,6,22,7.119,22,8.5c0,1.381-1.119,2.5-2.5,2.5c-1.209,0-2.218-0.859-2.45-2H14.95
	c-0.232,1.141-1.24,2-2.45,2C11.119,11,10,9.881,10,8.5C10,7.119,11.119,6,12.5,6c1.209,0,2.218,0.859,2.45,2h2.101
	C17.282,6.859,18.291,6,19.5,6z M9.5,6c1.209,0,2.218-0.859,2.45-2h8.101c0.232,1.141,1.24,2,2.45,2C23.881,6,25,4.881,25,3.5
	C25,2.119,23.881,1,22.5,1c-1.209,0-2.218,0.859-2.45,2H11.95c-0.232-1.141-1.24-2-2.45-2C8.119,1,7,2.119,7,3.5
	C7,4.881,8.119,6,9.5,6z M9.5,16c1.209,0,2.218-0.859,2.45-2h8.101c0.232,1.141,1.24,2,2.45,2c1.381,0,2.5-1.119,2.5-2.5
	c0-1.381-1.119-2.5-2.5-2.5c-1.209,0-2.218,0.859-2.45,2H11.95c-0.232-1.141-1.24-2-2.45-2C8.119,11,7,12.119,7,13.5
	C7,14.881,8.119,16,9.5,16z M6.5,21c1.209,0,2.218-0.859,2.45-2H23.05c0.232,1.141,1.24,2,2.45,2c1.381,0,2.5-1.119,2.5-2.5
	c0-1.381-1.119-2.5-2.5-2.5c-1.209,0-2.218,0.859-2.45,2H8.95c-0.232-1.141-1.24-2-2.45-2C5.119,16,4,17.119,4,18.5
	C4,19.881,5.119,21,6.5,21z M25.5,26c-1.209,0-2.218,0.859-2.45,2H8.95c-0.232-1.141-1.24-2-2.45-2C5.119,26,4,27.119,4,28.5
	C4,29.881,5.119,31,6.5,31c1.209,0,2.218-0.859,2.45-2H23.05c0.232,1.141,1.24,2,2.45,2c1.381,0,2.5-1.119,2.5-2.5
	C28,27.119,26.881,26,25.5,26z M28.5,21c-1.209,0-2.218,0.859-2.45,2H5.95c-0.232-1.141-1.24-2-2.45-2C2.119,21,1,22.119,1,23.5
	C1,24.881,2.119,26,3.5,26c1.209,0,2.218-0.859,2.45-2H26.05c0.232,1.141,1.24,2,2.45,2c1.381,0,2.5-1.119,2.5-2.5
	C31,22.119,29.881,21,28.5,21z"/>
</svg>